<svg width="24" height="25" viewBox="0 0 24 25" fill="none" xmlns="http://www.w3.org/2000/svg">
<path d="M12.5825 0C12.7794 0.0302829 12.9762 0.0454245 13.173 0.0605659C15.8682 0.333112 18.2151 1.40815 20.1987 3.25541C20.5166 3.54309 20.7892 3.86106 21.092 4.17903C21.1374 4.22446 21.1677 4.26988 21.2131 4.34559C20.4561 4.45158 19.9261 4.8604 19.6384 5.5569C17.0644 2.75574 13.9301 1.55957 10.1599 2.19551C7.04076 2.72546 4.76955 4.70898 3.60366 6.60166C3.8005 6.73793 3.96705 6.90449 4.01248 7.14675C4.02762 7.19218 4.04276 7.25274 4.02762 7.29817C3.98219 7.49501 4.08818 7.57071 4.25474 7.63128C4.497 7.73727 4.73927 7.8584 4.98153 7.97953C7.20732 4.22446 11.2349 3.6188 13.3396 4.08819C13.3396 4.22446 13.3245 4.34559 13.3396 4.48186C13.3699 4.72412 13.4759 4.92096 13.6727 5.05724C13.7787 5.13294 13.7787 5.19351 13.7484 5.2995C13.3245 6.75308 12.9005 8.20665 12.4765 9.66023C12.4463 9.78136 12.4008 9.90249 12.3857 9.9782C12.0374 10.0085 11.7195 10.0539 11.4015 10.069C11.3712 10.069 11.3106 10.0388 11.2955 9.99334C11.0684 9.50882 10.8564 9.03943 10.6444 8.55491C10.6293 8.50948 10.6596 8.41863 10.705 8.37321C11.023 8.0401 11.023 7.54043 10.7201 7.22246C10.4022 6.88935 9.91763 6.85907 9.56938 7.14675C9.31198 7.35873 9.20599 7.73727 9.31198 8.05524C9.43311 8.38835 9.73594 8.61547 10.1145 8.64575C10.1599 8.64575 10.2356 8.67604 10.2659 8.72146C10.5081 9.23627 10.7353 9.73594 10.9624 10.2356C10.705 10.4779 10.4779 10.705 10.2205 10.9624C9.76622 10.7353 9.28169 10.5081 8.81231 10.281C7.22246 9.50882 5.63261 8.7366 4.0579 7.97953C3.95191 7.93411 3.87621 7.91897 3.77022 8.00981C3.49767 8.25208 3.1797 8.26722 2.84659 8.1158C2.18037 9.38768 1.36273 12.7188 2.84659 16.0802C2.07438 16.0348 1.48386 16.3225 1.04476 16.9584C0.757072 16.3376 0.545091 15.7017 0.378536 15.0657C0.196839 14.3389 0.0605664 13.6121 0.0302835 12.8551C0.0302835 12.8096 0.0151414 12.7642 0 12.7037C0 12.2646 0 11.8255 0 11.3864C0.0151414 11.3258 0.0302835 11.2804 0.0302835 11.2198C0.0908493 10.7201 0.136273 10.2053 0.227121 9.7208C0.726788 7.19218 1.90782 5.0421 3.78536 3.28569C5.76888 1.43844 8.1158 0.363394 10.811 0.0908483C11.0078 0.0757069 11.2198 0.045424 11.4166 0.0151412C11.7952 -2.31265e-07 12.1888 0 12.5825 0Z" fill="#1C1C1C"/>
<path d="M11.4015 24.0443C11.2047 24.014 10.9927 23.9989 10.7958 23.9686C8.08553 23.6961 5.73861 22.6059 3.73994 20.7435C3.39169 20.4255 3.08886 20.0773 2.72546 19.6987C3.51282 19.5776 4.04277 19.1839 4.33045 18.4874C7.26789 21.5914 10.7807 22.7422 14.9295 21.5611C17.5338 20.8192 19.4567 19.1385 20.7892 16.7764C20.4712 16.5645 20.3198 16.3071 20.3349 15.9285C20.3349 15.8831 20.2592 15.8074 20.1987 15.7771C19.3356 15.3532 18.4877 14.9443 17.6246 14.5204C16.4133 13.9299 15.1869 13.3393 13.9755 12.7488C13.9301 12.7337 13.8998 12.7034 13.8544 12.6731C13.8847 12.5823 13.8998 12.4914 13.9301 12.4006C14.4298 12.4006 14.9295 12.4006 15.4291 12.4006C15.7168 12.4006 16.0045 12.4157 16.2922 12.4157C16.383 12.4157 16.4285 12.446 16.4739 12.5368C16.6404 12.9457 17.0341 13.1576 17.4429 13.0517C17.8366 12.9608 18.1092 12.5974 18.094 12.1886C18.0637 11.7798 17.7609 11.4618 17.3369 11.4012C17.0038 11.3558 16.6556 11.5527 16.5042 11.9009C16.4587 12.0069 16.3982 12.0372 16.2922 12.0372C15.6714 12.022 15.0657 12.0069 14.4449 12.0069C14.3087 12.0069 14.1572 11.9918 14.021 11.9918C13.9453 11.7344 13.9301 11.7344 14.1572 11.5981C15.8077 10.5685 17.4581 9.53885 19.1236 8.50923C19.1539 8.49409 19.1842 8.47895 19.2448 8.43352C20.2441 10.5836 20.3349 12.7488 19.5022 14.9746C19.8201 15.126 20.1532 15.2926 20.4712 15.444C20.5015 15.4591 20.5469 15.444 20.5772 15.4289C20.8195 15.2017 21.1072 15.1412 21.4554 15.2169C22.2579 12.764 22.1519 10.3565 21.1526 7.97928C22.1065 7.93386 22.1519 7.90357 22.9696 7.08594C23.1361 7.57046 23.3329 8.03985 23.4692 8.50923C23.8629 9.78111 24.0597 11.0984 23.984 12.4157C23.7115 16.9884 21.5614 20.4104 17.5489 22.6362C16.0499 23.469 14.4298 23.8778 12.7188 23.9838C12.6734 23.9838 12.628 23.9989 12.5674 24.014C12.1889 24.0443 11.7952 24.0443 11.4015 24.0443Z" fill="#1C1C1C"/>
<path d="M19.1388 15.7315C17.5641 18.8658 13.9907 20.5768 10.6444 19.9711C10.6444 19.9106 10.6444 19.85 10.6444 19.7894C10.6596 19.4866 10.5233 19.2443 10.2962 19.0626C10.2205 19.0021 10.1902 18.9567 10.2205 18.8507C10.6747 17.2911 11.129 15.7467 11.5832 14.1871C11.6286 14.0508 11.6892 14.0357 11.8103 14.0357C12.5371 14.0811 13.1125 13.8086 13.5516 13.2483C13.6424 13.1423 13.703 13.1272 13.8241 13.1878C15.4897 13.9903 17.1552 14.7928 18.8359 15.5801C18.9419 15.6255 19.0479 15.671 19.1388 15.7315Z" fill="#1C1C1C"/>
<path d="M8.88798 19.4717C7.57068 18.9114 6.49563 18.0787 5.61743 16.9582C5.66286 16.9279 5.70828 16.8976 5.73856 16.8674C7.3587 15.8529 8.97883 14.8535 10.599 13.8391C10.7655 13.7331 10.8866 13.6877 11.0532 13.8239C11.0986 13.8694 11.1592 13.8845 11.25 13.9148C11.2198 14.0359 11.1895 14.157 11.1592 14.2782C10.7201 15.762 10.2961 17.2307 9.85703 18.7146C9.82675 18.8206 9.78132 18.866 9.66019 18.8812C9.2968 18.9114 9.03939 19.1234 8.88798 19.4717Z" fill="#1C1C1C"/>
<path d="M20.668 6.91967L20.4106 6.45029L19.8958 6.76826C19.6687 6.90453 19.3053 7.13165 19.0933 7.26792C18.9571 7.34363 18.8359 7.43448 18.6997 7.51019C17.7912 6.19288 16.6253 5.20869 15.1566 4.58789C14.99 5.01185 14.7175 5.23897 14.2632 5.25411C14.2329 5.25411 14.1875 5.31468 14.1875 5.3601C14.0967 5.64779 14.0058 5.93548 13.9301 6.23831C13.5667 7.49504 13.2033 8.75178 12.8399 10.0085C12.8248 10.0691 12.8399 10.1751 12.8702 10.1902C13.2942 10.4173 13.6121 10.7505 13.8393 11.1896C13.9301 11.129 14.0058 11.0836 14.0815 11.0381C16.171 9.73598 20.3501 7.11651 20.3501 7.11651L20.668 6.91967Z" fill="#1C1C1C"/>
<path d="M21.3645 7.40408C22.0419 7.40408 22.591 6.85498 22.591 6.17763C22.591 5.50027 22.0419 4.95117 21.3645 4.95117C20.6872 4.95117 20.1381 5.50027 20.1381 6.17763C20.1381 6.85498 20.6872 7.40408 21.3645 7.40408Z" fill="black"/>
<path d="M10.4173 13.3247C9.96306 12.7341 9.84193 12.0982 10.0539 11.3866C8.23694 10.5235 6.43511 9.66043 4.603 8.78223C3.58852 11.2957 3.72479 13.7183 4.99667 16.0653C4.95125 16.0955 4.92097 16.1258 4.89068 16.141C4.66356 16.2772 4.33045 16.4892 4.0579 16.6558L3.13428 17.216L3.46739 17.6702L4.25474 17.1857C5.28436 16.5498 8.50948 14.536 10.2659 13.4458C10.3113 13.3852 10.3567 13.3549 10.4173 13.3247Z" fill="#1C1C1C"/>
<path d="M2.60426 19.0935C3.28162 19.0935 3.83072 18.5444 3.83072 17.8671C3.83072 17.1897 3.28162 16.6406 2.60426 16.6406C1.92691 16.6406 1.37781 17.1897 1.37781 17.8671C1.37781 18.5444 1.92691 19.0935 2.60426 19.0935Z" fill="black"/>
</svg>
