<svg width="24" height="24" viewBox="0 0 24 24" fill="none" xmlns="http://www.w3.org/2000/svg">
<path d="M5.72404 20.4647C5.72404 21.1472 5.17317 21.698 4.49075 21.698C3.80832 21.698 3.25745 21.1472 3.25745 20.4647C3.25745 19.7823 3.80832 19.2314 4.49075 19.2314C5.17317 19.2314 5.72404 19.7823 5.72404 20.4647Z" fill="black"/>
<path d="M4.57303 10.3018H4.21948V20.127H4.57303V10.3018Z" fill="black"/>
<path d="M17.8021 10.8203L11.2245 13.3774C11.1012 13.4267 10.9614 13.4267 10.8299 13.3774L4.1865 10.8039C3.7754 10.6477 3.7754 10.0639 4.1865 9.89948L10.8463 7.26844C10.9779 7.21911 11.1176 7.21911 11.2492 7.26844L17.8103 9.9077C18.2214 10.0721 18.2132 10.6477 17.8103 10.8121" fill="black"/>
<path d="M11.0437 16.1314L4.75391 13.6565C4.72924 13.6401 4.21948 13.2783 4.36748 12.5877C4.4497 12.2259 4.65525 12.045 4.81146 11.9546C5.04168 11.8313 5.29656 11.823 5.44456 11.8806C5.61722 11.9464 10.3038 13.8621 10.9615 14.1252L17.7364 11.3215C17.8269 11.2804 17.9338 11.3215 17.9667 11.4202C18.0078 11.5106 17.9667 11.6175 17.868 11.6504L10.9533 14.5116L10.8875 14.487C10.83 14.4623 5.49389 12.2835 5.31301 12.2177C5.2719 12.2012 5.1239 12.193 4.9759 12.267C4.83613 12.341 4.74569 12.4726 4.70458 12.6617C4.61414 13.0728 4.86902 13.303 4.92657 13.3523L11.0273 15.7449L18.1064 12.7768C18.1969 12.7357 18.3038 12.7768 18.3366 12.8754C18.3778 12.9659 18.3366 13.0728 18.238 13.1057L11.0273 16.1314H11.0437Z" fill="black"/>
<path d="M9.67881 14.8404C9.64592 14.8404 9.61303 14.8404 9.58014 14.8239L5.34582 13.1137C5.20604 13.0562 5.14027 12.9 5.19782 12.7684C5.25537 12.6287 5.41159 12.5629 5.54315 12.6204L9.77747 14.3306C9.91725 14.3882 9.98302 14.5444 9.92547 14.6759C9.88436 14.7828 9.78569 14.8404 9.67881 14.8404Z" fill="black"/>
<path d="M11.0684 16.1231C11.0684 16.1231 11.0519 16.1231 11.0437 16.1231C10.7395 16.082 10.1639 15.8271 10.1639 15.1118C10.1639 14.3965 10.6901 14.158 10.9697 14.1416C11.0684 14.1416 11.1506 14.2074 11.1588 14.306C11.1588 14.4047 11.093 14.4869 10.9944 14.4951C10.945 14.4951 10.5093 14.5527 10.5093 15.12C10.5093 15.6873 11.0272 15.7778 11.0848 15.786C11.1835 15.8024 11.2492 15.8847 11.2328 15.9833C11.2246 16.0738 11.1506 16.1313 11.0601 16.1313" fill="black"/>
<path d="M17.8761 13.1959C17.6706 13.1959 17.4239 13.163 17.2184 13.0232C17.0293 12.8916 16.9141 12.7025 16.8813 12.4477C16.7744 11.683 17.4075 11.3459 17.761 11.2801C17.8515 11.2637 17.9501 11.3212 17.9666 11.4199C17.983 11.5103 17.9255 11.609 17.8268 11.6255C17.7528 11.6419 17.1361 11.7899 17.2184 12.4065C17.243 12.5628 17.3006 12.6696 17.4075 12.7436C17.6295 12.8999 18.0159 12.8588 18.1474 12.8341C18.2379 12.8094 18.3366 12.8752 18.353 12.9656C18.3777 13.0561 18.3119 13.1547 18.2214 13.1712C18.2132 13.1712 18.057 13.2041 17.8679 13.2041" fill="black"/>
<path d="M11.9959 0C5.37718 0 0 5.3854 0 11.9959C0 18.6064 2.84481 19.7328 2.84481 19.7328C3.04214 19.1408 3.48612 18.6557 4.04522 18.4008C2.63104 16.6495 1.78417 14.4214 1.78417 11.9959C1.78417 6.36382 6.36382 1.77595 12.0041 1.77595C17.6444 1.77595 22.224 6.3556 22.224 11.9959C22.224 17.6362 17.6444 22.2158 12.0041 22.2158C6.36382 22.2158 7.20247 21.0154 7.20247 21.0154C7.20247 21.0154 5.53443 21.9116 5 22.2158C6.74306 23.2025 9.86639 23.9918 12.0041 23.9918C18.6228 23.9918 24 18.6064 24 11.9959C24 5.3854 18.6064 0 11.9959 0Z" fill="black"/>
</svg>
