<svg width="24" height="24" viewBox="0 0 24 24" fill="none" xmlns="http://www.w3.org/2000/svg">
<path fill-rule="evenodd" clip-rule="evenodd" d="M7.43561 4.24077C8.06117 4.31187 8.7384 4.50167 9.43863 4.78695C11.1284 5.47539 13.0354 6.75387 14.8245 8.46811L18.0006 5.292C15.0409 2.63975 10.7477 2.28934 7.43561 4.24077ZM18.7087 4.58392C14.7835 1.02729 8.71557 1.14229 4.92893 4.92893C1.14229 8.71557 1.02729 14.7835 4.58392 18.7087L3.61796 19.6746C3.4227 19.8699 3.4227 20.1865 3.61796 20.3817C3.81322 20.577 4.1298 20.577 4.32507 20.3817L5.29101 19.4158C9.21621 22.9727 15.2843 22.8578 19.0711 19.0711C22.8578 15.2843 22.9727 9.21621 19.4158 5.29101L20.3814 4.32539C20.5767 4.13013 20.5767 3.81355 20.3814 3.61829C20.1862 3.42302 19.8696 3.42302 19.6743 3.61829L18.7087 4.58392ZM18.7077 5.99909L15.5316 9.17521C17.246 10.9644 18.5245 12.8715 19.213 14.5613C19.4983 15.2616 19.6881 15.9388 19.7592 16.5644C21.7107 13.2522 21.3602 8.95878 18.7077 5.99909ZM18.364 18.364C18.6327 18.0952 18.7919 17.6803 18.7906 17.0898C18.7892 16.4966 18.6239 15.7657 18.2869 14.9386C17.6577 13.3943 16.4637 11.5967 14.8243 9.88248L9.88244 14.8244C11.5966 16.4637 13.3942 17.6578 14.9386 18.287C15.7657 18.6239 16.4966 18.7892 17.0898 18.7906C17.6803 18.7919 18.0952 18.6327 18.364 18.364ZM8.46807 14.8245C6.75383 13.0354 5.47536 11.1284 4.78693 9.43864C4.50166 8.73841 4.31186 8.06119 4.24076 7.43563C2.28934 10.7477 2.63976 15.0409 5.292 18.0006L8.46807 14.8245ZM9.17534 14.1173C7.53609 12.4031 6.34217 10.6056 5.71303 9.06135C5.37608 8.23429 5.21076 7.50343 5.20942 6.9102C5.20809 6.31967 5.36733 5.90475 5.63604 5.63604C5.90475 5.36733 6.31966 5.20809 6.91019 5.20943C7.50341 5.21077 8.23427 5.37609 9.06133 5.71304C10.6056 6.3422 12.4031 7.53612 14.1172 9.17538L9.17534 14.1173ZM5.99909 18.7077L9.17517 15.5316C10.9644 17.246 12.8714 18.5246 14.5613 19.213C15.2616 19.4983 15.9388 19.6881 16.5644 19.7592C13.2522 21.7107 8.95877 21.3602 5.99909 18.7077Z" fill="black"/>
</svg>
