<svg width="24" height="24" viewBox="0 0 24 24" fill="none" xmlns="http://www.w3.org/2000/svg">
<path d="M2.49971 3.5V3C2.22356 3 1.99971 3.22386 1.99971 3.5H2.49971ZM9.99971 3.5L10.4157 3.22265C10.323 3.08355 10.1669 3 9.99971 3V3.5ZM11.9997 6.5L11.5837 6.77735C11.6764 6.91645 11.8325 7 11.9997 7V6.5ZM21.4997 6.5H21.9997C21.9997 6.22386 21.7758 6 21.4997 6V6.5ZM21.4997 19.5V20C21.7758 20 21.9997 19.7761 21.9997 19.5H21.4997ZM1.99971 8.5C1.99971 8.77614 2.22356 9 2.49971 9C2.77585 9 2.99971 8.77614 2.99971 8.5H1.99971ZM12.9997 19C12.7236 19 12.4997 19.2239 12.4997 19.5C12.4997 19.7761 12.7236 20 12.9997 20V19ZM0.785156 20.5L0.298405 20.3857C0.263483 20.5343 0.298419 20.6908 0.393258 20.8105C0.488098 20.9302 0.63244 21 0.785156 21V20.5ZM10.2133 20.5V21C10.366 21 10.5103 20.9302 10.6052 20.8105C10.7 20.6908 10.735 20.5343 10.7 20.3857L10.2133 20.5ZM2.49971 4H9.99971V3H2.49971V4ZM9.58368 3.77735L11.5837 6.77735L12.4157 6.22265L10.4157 3.22265L9.58368 3.77735ZM11.9997 7H21.4997V6H11.9997V7ZM20.9997 6.5V19.5H21.9997V6.5H20.9997ZM2.99971 8.5V3.5H1.99971V8.5H2.99971ZM12.9997 20H21.4997V19H12.9997V20ZM6.99971 12.5C6.99971 13.3284 6.32813 14 5.49971 14V15C6.88042 15 7.99971 13.8807 7.99971 12.5H6.99971ZM5.49971 14C4.67128 14 3.99971 13.3284 3.99971 12.5H2.99971C2.99971 13.8807 4.119 15 5.49971 15V14ZM3.99971 12.5C3.99971 11.6716 4.67128 11 5.49971 11V10C4.119 10 2.99971 11.1193 2.99971 12.5H3.99971ZM5.49971 11C6.32813 11 6.99971 11.6716 6.99971 12.5H7.99971C7.99971 11.1193 6.88042 10 5.49971 10V11ZM1.27191 20.6143C1.76731 18.5053 3.49711 17 5.49922 17V16C2.9653 16 0.883673 17.8941 0.298405 20.3857L1.27191 20.6143ZM5.49922 17C7.50133 17 9.23113 18.5053 9.72653 20.6143L10.7 20.3857C10.1148 17.8941 8.03314 16 5.49922 16V17ZM10.2133 20H0.785156V21H10.2133V20Z" fill="black"/>
</svg>
