<svg width="24" height="24" viewBox="0 0 24 24" fill="none" xmlns="http://www.w3.org/2000/svg">
<path d="M2.5 4C2.22386 4 2 4.22386 2 4.5C2 4.77614 2.22386 5 2.5 5H7C9.48528 5 11.5 7.01472 11.5 9.5V14.0429L8.60355 11.1464C8.40829 10.9512 8.09171 10.9512 7.89645 11.1464C7.70118 11.3417 7.70118 11.6583 7.89645 11.8536L11.6464 15.6036C11.8417 15.7988 12.1583 15.7988 12.3536 15.6036L16.1036 11.8536C16.2988 11.6583 16.2988 11.3417 16.1036 11.1464C15.9083 10.9512 15.5917 10.9512 15.3964 11.1464L12.5 14.0429V9.5C12.5 6.46243 10.0376 4 7 4H2.5Z" fill="black"/>
<path d="M15.5 4C15.2239 4 15 4.22386 15 4.5C15 4.77614 15.2239 5 15.5 5H20.5C20.7761 5 21 5.22386 21 5.5V18.5C21 18.7761 20.7761 19 20.5 19H3.5C3.22386 19 3 18.7761 3 18.5V8.5C3 8.22386 2.77614 8 2.5 8C2.22386 8 2 8.22386 2 8.5V18.5C2 19.3284 2.67157 20 3.5 20H20.5C21.3284 20 22 19.3284 22 18.5V5.5C22 4.67157 21.3284 4 20.5 4H15.5Z" fill="black"/>
</svg>
