<svg width="24" height="24" viewBox="0 0 24 24" fill="none" xmlns="http://www.w3.org/2000/svg">
<path d="M12 12.5C14.7614 12.5 17 10.2614 17 7.5C17 4.73858 14.7614 2.5 12 2.5C9.23858 2.5 7 4.73858 7 7.5C7 10.2614 9.23858 12.5 12 12.5ZM12 12.5V14.5M7.5 17.5C7.5 19.1569 6.15685 20.5 4.5 20.5C2.84315 20.5 1.5 19.1569 1.5 17.5C1.5 15.8431 2.84315 14.5 4.5 14.5C6.15685 14.5 7.5 15.8431 7.5 17.5ZM7.5 17.5H9M15 17.5C15 19.1569 13.6569 20.5 12 20.5C10.3431 20.5 9 19.1569 9 17.5M15 17.5C15 15.8431 13.6569 14.5 12 14.5M15 17.5H16.5M9 17.5C9 15.8431 10.3431 14.5 12 14.5M16.5 17.5C16.5 19.1569 17.8431 20.5 19.5 20.5C21.1569 20.5 22.5 19.1569 22.5 17.5C22.5 15.8431 21.1569 14.5 19.5 14.5C17.8431 14.5 16.5 15.8431 16.5 17.5Z" stroke="black"/>
</svg>
