<svg width="24" height="24" viewBox="0 0 24 24" fill="none" xmlns="http://www.w3.org/2000/svg">
<path d="M14.0342 17.5C15.8327 19.0486 17.8265 19.2107 19.6281 17.2761C15.5899 12.9397 10.1288 19.9163 14.8407 21.5M10.0597 17.5C8.22583 19.0486 6.20917 19.2107 4.37208 17.2761C8.17972 13.2663 13.9603 19.173 9.25381 21.5M7.42111 15.5751C6.72291 12.4007 4.92764 11.2957 2 12.2382C2.69819 15.4126 4.49347 16.5177 7.42111 15.5751ZM6.16381 12.3301C7.12244 9.45162 5.99852 7.68648 2.76994 7C1.81131 9.8785 2.93524 11.6436 6.16381 12.3301ZM7.01059 2.5C4.1622 4.10908 3.76153 6.0709 5.80071 8.42404C8.64909 6.81496 9.04976 4.85313 7.01059 2.5ZM16.5789 15.5751C17.2771 12.4007 19.0724 11.2957 22 12.2382C21.3018 15.4126 19.5065 16.5177 16.5789 15.5751ZM17.8363 12.3301C16.8776 9.45162 18.0016 7.68648 21.2301 7C22.1888 9.8785 21.0648 11.6436 17.8363 12.3301ZM16.9895 2.5C19.8378 4.10908 20.2385 6.0709 18.1993 8.42404C15.351 6.81496 14.9503 4.85313 16.9895 2.5Z" stroke="black" stroke-linecap="round" stroke-linejoin="round"/>
</svg>
