<svg width="24" height="24" viewBox="0 0 24 24" fill="none" xmlns="http://www.w3.org/2000/svg">
<path d="M3.81808 13.5335C3.85104 14.0118 4.04879 14.4405 4.41136 14.8198C4.77392 15.199 5.31776 15.3886 6.04287 15.3886C6.58672 15.3886 6.99047 15.2732 7.25415 15.0424C7.51783 14.795 7.64967 14.5065 7.64967 14.1767C7.64967 13.8963 7.55079 13.6572 7.35304 13.4593C7.15527 13.245 6.81743 13.0883 6.33951 12.9894L4.73272 12.6184C3.54616 12.3545 2.68096 11.901 2.13712 11.2579C1.59328 10.5983 1.32136 9.83981 1.32136 8.98233C1.32136 8.43816 1.43672 7.92694 1.66744 7.44879C1.89816 6.95406 2.21128 6.53354 2.6068 6.18729C3.0188 5.82449 3.49672 5.53592 4.04056 5.32155C4.60088 5.10718 5.21064 5 5.86983 5C6.72679 5 7.45191 5.12367 8.04518 5.37102C8.63846 5.60188 9.11641 5.8987 9.47897 6.26149C9.85796 6.62425 10.1381 7.01176 10.3194 7.42403C10.5007 7.81979 10.6078 8.18255 10.6408 8.51237L7.89691 9.13074C7.8639 8.94933 7.8062 8.76798 7.72381 8.58657C7.65793 8.38865 7.54255 8.20731 7.37775 8.0424C7.21295 7.87749 7.00696 7.74559 6.75976 7.64663C6.52904 7.54768 6.24064 7.49823 5.89456 7.49823C5.46608 7.49823 5.09527 7.61363 4.78215 7.84448C4.48551 8.07534 4.3372 8.36396 4.3372 8.71022C4.3372 9.00702 4.43607 9.24613 4.63384 9.42754C4.84808 9.60896 5.12 9.7326 5.4496 9.79855L7.18 10.1696C8.38304 10.4169 9.28118 10.8786 9.87447 11.5548C10.4843 12.2308 10.7891 13.0141 10.7891 13.9045C10.7891 14.3993 10.6902 14.8857 10.4924 15.364C10.3112 15.8421 10.0228 16.2709 9.62731 16.6501C9.23174 17.0294 8.73735 17.3345 8.14407 17.5653C7.55079 17.7962 6.85863 17.9116 6.0676 17.9116C5.14472 17.9116 4.37016 17.7797 3.74392 17.5159C3.11768 17.252 2.6068 16.9304 2.21128 16.5512C1.81576 16.1719 1.51912 15.7679 1.32136 15.3392C1.14008 14.894 1.03296 14.4982 1 14.1519L3.81808 13.5335Z" fill="black"/>
<path d="M10.8008 19.9998V17.3037H23.4327V19.9998H10.8008Z" fill="black"/>
</svg>
